<svg xmlns="http://www.w3.org/2000/svg" width="64" height="64">
	<path id="background" fill="black" d="m 0,0 v 64 h 64 v -64 z" />
	<path id="shadow" fill="red" d="m 22,16.5 v 4 h 4 v -4 z m 4,4 v 4 h -4 v 8 h -4 v 4 h 4 v 4 h 4 v 4 h 4 v -4 h 4 v 4 h 4 v -4 h 4 v -4 h 4 v -4 h -4 v -8 h -4 v -4 h -4 v 4 h -4 v -4 z m 12,0 h 4 v -4 h -4 z m 8,12 h 4 v -8 h -4 z m -8,12 v 4 h 4 v -4 z m -12,0 h -4 v 4 h 4 z m -8,-12 v -8 h -4 v 8 z m 8,-4 h 4 v 4 h -4 z m 8,0 h 4 v 4 h -4 z" />
	<path id="drawing" fill="white" d="m 22,15.5 v 4 h 4 v -4 z m 4,4 v 4 h -4 v 8 h -4 v 4 h 4 v 4 h 4 v 4 h 4 v -4 h 4 v 4 h 4 v -4 h 4 v -4 h 4 v -4 h -4 v -8 h -4 v -4 h -4 v 4 h -4 v -4 z m 12,0 h 4 v -4 h -4 z m 8,12 h 4 v -8 h -4 z m -8,12 v 4 h 4 v -4 z m -12,0 h -4 v 4 h 4 z m -8,-12 v -8 h -4 v 8 z m 8,-4 h 4 v 4 h -4 z m 8,0 h 4 v 4 h -4 z" />
</svg>