<svg xmlns="http://www.w3.org/2000/svg" width="64" height="64">
	<path id="background" fill="black" d="m 0,0 v 64 h 64 v -64 z" />
	<path id="shadow" fill="red" d="m 32,14.375 v 15 h 15 v -15 h -3 v 3 h -9 v -3 z m 3,6 h 3 v 6 h -3 z m 6,0 h 3 v 6 h -3 z m -15,12 v 3 h -3 v 3 h -3 v 3 h 6 v 3 h 9 v -3 h 3 v 3 h 3 v -6 h 3 v 6 h 3 v -12 h -3 v 3 h -3 v -3 z m -6,9 h -3 v 6 h 3 z m 0,6 v 3 h 3 v -3 z" />
	<path id="drawing" fill="white" d="m 32,13.625 v 15 h 15 v -15 h -3 v 3 h -9 v -3 z m 3,6 h 3 v 6 h -3 z m 6,0 h 3 v 6 h -3 z m -15,12 v 3 h -3 v 3 h -3 v 3 h 6 v 3 h 9 v -3 h 3 v 3 h 3 v -6 h 3 v 6 h 3 v -12 h -3 v 3 h -3 v -3 z m -6,9 h -3 v 6 h 3 z m 0,6 v 3 h 3 v -3 z" />
</svg>