<svg xmlns="http://www.w3.org/2000/svg" width="64" height="64">
	<path id="background" fill="black" d="m 0,0 v 64 h 64 v -64 z" />
	<path id="shadow" fill="red" d="m 26,18.875 v 3 h -9 v 3 h -3 v 12 h 9 v 3 h -3 v 3 h 6 v -3 h 3 v -3 h 6 v 3 h 3 v 3 h 6 v -3 h -3 v -3 h 9 v -12 h -3 v -3 h -9 v -3 z m 18,24 v 3 h 6 v -3 z m -9,-3 h -6 v 3 h 6 z m -15,3 h -6 v 3 h 6 z m 3,-15 h 6 v 3 h -6 z m 12,0 h 6 v 3 h -6 z" />
	<path id="drawing" fill="white" d="m 26,18.125 v 3 h -9 v 3 h -3 v 12 h 9 v 3 h -3 v 3 h 6 v -3 h 3 v -3 h 6 v 3 h 3 v 3 h 6 v -3 h -3 v -3 h 9 v -12 h -3 v -3 h -9 v -3 z m 18,24 v 3 h 6 v -3 z m -9,-3 h -6 v 3 h 6 z m -15,3 h -6 v 3 h 6 z m 3,-15 h 6 v 3 h -6 z m 12,0 h 6 v 3 h -6 z" />
</svg>