<svg xmlns="http://www.w3.org/2000/svg" width="64" height="64">
	<path id="background" fill="black" d="m 0,0 v 64 h 64 v -64 z" />
	<path id="shadow" fill="red" d="m 14,14.5 v 4 h -4 v 4 h 8 v -8 z m 32,0 v 8 h 8 v -4 h -4 v -4 z m -24,8 v 4 h -4 v 12 h 4 v 8 h 4 v -4 h 4 v 4 h 4 v -4 h 4 v 4 h 4 v -8 h 4 v -12 h -4 v -4 z m 0,8 h 8 v 4 h -8 z m 12,0 h 8 v 4 h -8 z m -24,12 v 4 h 4 v 4 h 4 v -8 z m 36,0 v 8 h 4 v -4 h 4 v -4 z" />
	<path id="drawing" fill="white" d="m 14,13.5 v 4 h -4 v 4 h 8 v -8 z m 32,0 v 8 h 8 v -4 h -4 v -4 z m -24,8 v 4 h -4 v 12 h 4 v 8 h 4 v -4 h 4 v 4 h 4 v -4 h 4 v 4 h 4 v -8 h 4 v -12 h -4 v -4 z m 0,8 h 8 v 4 h -8 z m 12,0 h 8 v 4 h -8 z m -24,12 v 4 h 4 v 4 h 4 v -8 z m 36,0 v 8 h 4 v -4 h 4 v -4 z" />
</svg>